<?xml version="1.0" encoding="UTF-8" standalone="no"?>
<!-- Created with Inkscape (http://www.inkscape.org/) -->

<svg
   width="210mm"
   height="297mm"
   viewBox="0 0 210 297"
   version="1.1"
   id="svg1"
   inkscape:version="1.3 (0e150ed6c4, 2023-07-21)"
   sodipodi:docname="9.svg"
   xmlns:inkscape="http://www.inkscape.org/namespaces/inkscape"
   xmlns:sodipodi="http://sodipodi.sourceforge.net/DTD/sodipodi-0.dtd"
   xmlns="http://www.w3.org/2000/svg"
   xmlns:svg="http://www.w3.org/2000/svg">
  <sodipodi:namedview
     id="namedview1"
     pagecolor="#ffffff"
     bordercolor="#000000"
     borderopacity="0.25"
     inkscape:showpageshadow="2"
     inkscape:pageopacity="0.0"
     inkscape:pagecheckerboard="0"
     inkscape:deskcolor="#d1d1d1"
     inkscape:document-units="mm"
     inkscape:zoom="2.768771"
     inkscape:cx="442.79574"
     inkscape:cy="513.04351"
     inkscape:window-width="1920"
     inkscape:window-height="991"
     inkscape:window-x="-9"
     inkscape:window-y="-9"
     inkscape:window-maximized="1"
     inkscape:current-layer="layer1" />
  <defs
     id="defs1">
    <rect
       x="85.236372"
       y="449.29681"
       width="535.97787"
       height="390.06476"
       id="rect3" />
    <rect
       x="117.01943"
       y="235.48354"
       width="36.117107"
       height="108.35132"
       id="rect1" />
  </defs>
  <g
     inkscape:label="Katman 1"
     inkscape:groupmode="layer"
     id="layer1">
    <text
       xml:space="preserve"
       transform="scale(0.26458333)"
       id="text1"
       style="font-size:8px;white-space:pre;shape-inside:url(#rect1);display:inline;fill:#000000" />
    <path
       style="fill:#ffff00;fill-opacity:1;stroke-width:0.361171"
       d=""
       id="path8"
       transform="scale(0.26458333)" />
    <path
       style="fill:#1a1a1a;fill-opacity:1;stroke-width:0.361171"
       d=""
       id="path1"
       transform="scale(0.26458333)" />
    <path
       id="text4"
       style="font-size:50.8px;font-family:SimSun;-inkscape-font-specification:SimSun;fill:#1a1a1a;fill-opacity:1;stroke-width:0.264583"
       d="m 103.98673,125.14606 c -2.9196,0.11209 -5.19449,1.16172 -6.817681,3.1595 -1.719788,2.11666 -2.579687,4.76251 -2.579687,7.93749 0,3.70417 0.793752,6.41615 2.38125,8.13594 1.587496,1.5875 3.704168,2.38125 6.350008,2.38125 0.42866,0 0.83882,-0.0297 1.23661,-0.0791 -0.0166,-0.44018 -0.0237,-0.88022 -0.0264,-1.32085 -0.002,-0.13924 -0.0118,-0.27829 -0.0155,-0.41755 -0.19729,0.0194 -0.39663,0.0315 -0.59945,0.0315 -1.71979,0 -3.17501,-0.7276 -4.365631,-2.18281 -1.058331,-1.5875 -1.5875,-3.83647 -1.5875,-6.74687 0,-2.77812 0.529169,-5.02709 1.5875,-6.74687 0.999521,-1.74916 2.530491,-2.6711 4.591971,-2.76831 -0.006,-0.0162 -0.008,-0.0332 -0.016,-0.0491 -0.064,-0.18798 -0.11226,-0.38106 -0.13126,-0.57929 -0.0271,-0.2264 -0.0224,-0.45253 -0.0119,-0.68007 9.8e-4,-0.025 0.003,-0.0499 0.004,-0.0749 z m 1.13998,5.2e-4 c -0.001,0.0479 -0.002,0.0957 -0.003,0.14366 -0.005,0.24786 -0.075,0.42757 -0.17415,0.54363 0.0155,0.10827 0.0273,0.22143 0.0739,0.3204 0.055,0.12593 0.0852,0.25834 0.10852,0.39222 2.06079,0.16149 3.57497,1.14265 4.53874,2.94969 1.05833,1.85208 1.5875,4.36564 1.5875,7.54062 0,1.5875 -0.72761,3.3073 -2.18282,5.15938 -1.06012,1.34926 -2.26139,2.20459 -3.60236,2.5709 0.006,0.1921 0.0102,0.38446 0.0134,0.57671 0.002,0.38918 0.011,0.77801 0.0233,1.16685 1.04479,-0.25267 1.97012,-0.69645 2.77192,-1.3379 1.32292,-1.05833 2.31511,-2.38125 2.97657,-3.96875 -0.26459,6.2177 -1.12448,10.64949 -2.57969,13.29531 -0.91035,1.65519 -2.00198,2.79247 -3.27474,3.4122 -0.009,0.11483 -0.0139,0.22987 -0.0227,0.34468 -0.0309,0.42981 -0.0437,0.86064 -0.0527,1.2914 2.60623,-0.64986 4.71619,-2.33046 6.32674,-5.04828 2.24896,-3.70415 3.37344,-8.33439 3.37344,-13.89062 0,-5.02708 -0.92604,-8.86354 -2.77813,-11.50937 -1.7355,-2.47931 -4.11027,-3.79669 -7.12359,-3.95273 z m -6.568598,27.96366 c -0.793748,0 -1.389063,0.26459 -1.785938,0.79375 -0.264583,0.52917 -0.396875,1.05834 -0.396875,1.5875 0,1.32292 0.595315,2.38125 1.785938,3.175 1.322913,0.79375 2.844273,1.19063 4.564063,1.19063 0.56721,0 1.11318,-0.0439 1.6428,-0.12196 1e-4,-0.006 -1.1e-4,-0.0128 0,-0.0191 0.009,-0.48124 0.0231,-0.96249 0.0553,-1.44281 -0.47805,0.12747 -0.97699,0.19482 -1.49965,0.19482 h -1.19063 c -0.26458,-0.13229 -0.46302,-0.26458 -0.59531,-0.39687 -0.13229,-0.13229 -0.26458,-0.33073 -0.39688,-0.59531 -0.13229,-0.39688 -0.19843,-0.8599 -0.19843,-1.38907 0,-0.79373 -0.1323,-1.4552 -0.39688,-1.98437 -0.264581,-0.66146 -0.79375,-0.99219 -1.587498,-0.99219 z" />
  </g>
</svg>
